# xmcd
#
# Track frame offsets:
#	150
#	24905
#	50980
#	78462
#	102550
#	127715
#
# Disc length: 2377 seconds
#
# Revision: 8
# Processed by: cddbd v1.5.2PL0 Copyright (c) Steve Scherf et al.
# Submitted via: EZCDAudioConverter 2.1.7.1
#
DISCID=46094706
DTITLE=David Bowie - I'm Afraid Of Americans
DYEAR=1997
DGENRE=
TTITLE0=I'm Afraid Of Americans [V1]
TTITLE1=I'm Afraid Of Americans [V2]
TTITLE2=I'm Afraid Of Americans [V3]
TTITLE3=I'm Afraid Of Americans [V4]
TTITLE4=I'm Afraid Of Americans [V5]
TTITLE5=I'm Afraid Of Americans [V6]
EXTD=
EXTT0=
EXTT1=
EXTT2=
EXTT3=
EXTT4=
EXTT5=
PLAYORDER=
